Patient4_TMGait_0pt8_01_left_16_EMG.mot
version=1
nRows=17
nColumns=33
inDegrees=no
endheader
time	1LAddLong	2LGlutMax	3LGlutMed	4LIliopsoas	5LSemiMemb	6LBicFemLong	7LRecFem	8LVastMed	9LVastLat	10LGasMed	11LTibAnt	12lTibPost	13LPeroneusLong	14LSol	15LExtDigLong	16LFlexDigLong	17RAddLong	18RGlutMax	19RGlutMed	20RIliopsoas	21RSemiMemb	22RBicFemLong	23RRecFem	24RVastMed	25RVastLat	26RGasMed	27RTibAnt	28RTibPost	29RPeroneusLong	30RSol	31RExtDigLong	32RFlexDigLong
17.915	0.011139	0.16083	0.36774	0.016327	0.0177	-0.052795	-0.2214	-0.005798	-0.052795	-0.039673	0.003815	-0.00885	-0.27664	0.17181	0.029907	-0.1561	0.16312	-0.082245	0.57892	-0.00412	0.24414	-0.13886	0.22903	0.14954	0.55237	-0.002289	-0.21515	0.010071	0.35019	0.01297	0.000763	0.014801
17.916	0.00885	0.20065	0.36163	0.016174	0.019836	0.012054	-0.21133	-0.00351	-0.056458	0.033112	-0.000916	0.001221	-0.12161	0.097504	0.045776	-0.5275	0.20447	-0.10086	0.47821	0.021667	0.066833	-0.38208	0.39383	-0.019989	-0.065308	-0.004425	-0.53207	-0.002136	0.33264	0.025787	-0.000305	-0.002136
17.917	0.009155	0.18997	0.37445	0.01709	0.02533	-0.014191	-0.2327	-0.003204	-0.06134	0.14145	-0.005493	0.47318	0.15152	-0.21988	0.021973	0.76462	0.12894	0.000763	0.95184	-0.005035	-0.23911	-0.22018	0.034332	-0.009003	-0.56778	-0.00946	-0.5249	0.000153	0.57877	0.025787	0.001831	-0.006409
17.918	0.007629	0.20355	0.36713	0.003357	0.024261	-0.047302	-0.2211	0.015869	-0.05249	0.14679	0	-0.64529	0.68603	-0.24262	0.042572	-0.18448	0.018768	-0.005341	1.29	-0.001831	-0.43076	-0.039978	-0.23514	-0.13428	-0.77621	-0.009155	-0.064545	0.00824	0.35187	-0.04715	0.003357	-0.009918
17.919	0.016937	0.21271	0.36591	0.015259	0.007935	-0.015869	-0.23697	0.003967	-0.059052	0.43671	-0.016937	0.019379	0.29098	-0.32105	0.066528	0.023346	-0.13107	-0.052643	1.0046	-0.005188	0.063934	-0.02655	-0.49439	-0.095673	-0.75958	-0.015564	0.19684	0.003204	0.46295	-0.1329	-0.000153	-0.014038
17.92	0.014191	0.23056	0.35736	0.006561	0.019836	-0.003967	-0.23972	0.003815	-0.072937	0.4686	-0.020294	0.39002	-0.13748	-0.35278	0.008087	-0.11704	-0.1796	-0.061798	0.89874	-0.031128	0.26291	0.080109	-0.27329	-0.062714	-1.0393	-0.000305	0.61554	0.00351	0.31815	-0.19653	-0.000458	-0.013428
17.921	0.009308	0.2446	0.34561	0.014648	0.036011	0.03479	-0.25894	0.003204	-0.066681	0.13428	-0.001373	0.025787	0.21194	-0.30914	-0.041046	0.44983	-0.058594	-0.028687	0.54764	0.005188	-0.021973	0.092468	0.14328	-0.21194	-1.0556	0.006104	0.59998	0.005341	-0.36285	-0.23544	-0.001678	-0.00824
17.922	0.008392	0.19898	0.34714	0.002289	0.015411	0.039673	-0.24109	0.011292	-0.065918	0.22354	0.01297	-0.055695	-0.034637	-0.91934	0.028839	-0.031891	-0.076294	-0.069275	0.30762	0.0177	0.054626	0.4454	0.2214	-0.09201	-0.64758	0.002594	0.009003	0.004578	-0.42313	-0.16525	0.001221	-0.01236
17.923	0.00946	0.15976	0.34637	-0.010529	0.025177	0.0354	-0.25238	-0.001373	-0.070953	-0.06897	0.013123	-0.043182	0.08728	-0.87662	-0.016174	-0.043488	-0.095825	-0.11368	0.37918	0.008392	0.6662	0.75974	0.095825	-0.15762	-0.36392	-0.012054	-0.42252	-0.003204	-0.22736	-0.041504	-0.002136	-0.00946
17.924	0.010834	0.1532	0.34317	0.02121	0.00885	0.079346	-0.24658	0.000153	-0.055847	0.11398	0.009308	-0.044403	0.078125	0	-0.034485	-0.020447	0.020294	-0.12466	0.39978	0.020752	0.59601	0.72205	0.13001	-0.28046	-0.31204	-0.002441	-0.4866	-0.001526	-0.16678	-0.11093	-0.001526	-0.014038
17.925	0.010834	0.16983	0.3212	0.042725	0.022583	0.068207	-0.24231	0.001526	-0.053711	0.063019	-0.010681	-0.03006	0.024567	0.22781	-0.011902	-0.039825	0.073853	-0.008545	0.36499	-0.006104	0.27557	0.82016	0.17777	-0.36591	-0.34744	0.004425	-0.57037	0.001221	-0.40405	-0.13763	0.006561	-0.010376
17.926	0.007935	0.15472	0.34225	0.022125	0.023804	0.041809	-0.24979	0.001526	-0.062256	-0.26886	-0.021515	-0.005951	0.017395	-0.17288	-0.001831	-0.040131	0.066528	0.042725	0.097961	0.004425	-0.19684	0.61813	0.25894	-0.43686	-0.3598	0.005646	-0.42114	0.001831	-0.3598	0.064392	0.000305	-0.001526
17.927	0.001678	0.14084	0.3569	0.014954	-0.00061	0.024567	-0.24277	0.001373	-0.053558	-0.39734	-0.006561	-0.012665	0.02594	-0.12558	0.001526	-0.033875	-0.010223	0.033264	-0.057068	0.036621	-0.25803	0.62027	0.23468	-0.33218	-0.28275	0.00061	-0.112	-0.002899	-0.25681	0.13641	-0.002289	0.002594
17.928	0.004883	0.16312	0.36606	0.005493	0.015411	0.033569	-0.23514	0.001526	-0.04776	-0.32944	-0.011444	-0.00412	0.033569	0.12802	-0.001831	0.005951	-0.066986	0.020447	0.25116	0.015564	0.019836	0.54016	0.15457	-0.15274	-0.20721	0.000153	0.063324	-0.002899	0.026245	0.13672	0.004425	-0.001068
17.929	0.00885	0.22232	0.37476	-0.003052	0.008392	0.04303	-0.25894	0.003815	-0.047607	0.005188	0.002136	0.001373	0.04715	0.25345	-0.013123	0.005341	-0.071259	-0.083466	0.54611	-0.023651	0.49835	0.30716	0.17242	-0.025787	-0.16968	0.005493	-0.12116	0.001831	0.72098	0.061646	0.001221	0.001831
17.93	0.007477	0.14206	0.39215	0.014496	0.007324	0.065613	-0.24658	-0.000763	-0.044098	-0.009003	0.003052	0.002594	0.056152	0.31082	-0.015564	0.004272	-0.071716	-0.16251	0.76813	-0.046082	0.62561	0.12558	0.0383	-0.014191	-0.055847	-0.006714	-0.22537	-0.000305	0.42602	0.030975	0.000305	-0.001526
17.931	0.013885	0.13718	0.42282	0.004883	0.005646	0.035095	-0.26688	-0.002136	-0.043488	-0.21255	-0.00473	0.006104	-0.049438	0.47073	-0.003357	-0.002747	-0.072784	-0.24719	-0.019684	-0.067139	0.17059	-0.103	-0.27969	0.12024	0.5339	-0.013123	-0.040131	0.002441	0.16892	0.085602	0.002747	0.003815
